<svg xmlns="http://www.w3.org/2000/svg" width="146.834" height="24" viewBox="0 0 146.834 24">
  <g id="Symbol_6_1" data-name="Symbol 6 – 1" transform="translate(-12 -17)">
    <text id="DevCenter" transform="translate(30 37)" fill="#fff" font-size="21" font-family="HelveticaNeue, Helvetica Neue, Arial"><tspan x="0" y="0">DevCenter</tspan></text>
    <path id="chevron-left" d="M27.833,47.414,37.244,38a1.162,1.162,0,0,1,1.644,0l1.1,1.1a1.162,1.162,0,0,1,0,1.642l-7.459,7.493,7.459,7.494a1.162,1.162,0,0,1,0,1.642l-1.1,1.1a1.162,1.162,0,0,1-1.644,0l-9.411-9.412A1.162,1.162,0,0,1,27.833,47.414Z" transform="translate(-15.493 -19.124)" fill="rgba(0,0,0,0.33)"/>
    <path id="chevron-left-2" data-name="chevron-left" d="M27.833,47.414,37.244,38a1.162,1.162,0,0,1,1.644,0l1.1,1.1a1.162,1.162,0,0,1,0,1.642l-7.459,7.493,7.459,7.494a1.162,1.162,0,0,1,0,1.642l-1.1,1.1a1.162,1.162,0,0,1-1.644,0l-9.411-9.412A1.162,1.162,0,0,1,27.833,47.414Z" transform="translate(186.326 77.347) rotate(180)" fill="rgba(0,0,0,0.33)"/>
    <line id="Line_1" data-name="Line 1" y1="17" x2="7" transform="translate(135.5 20.5)" fill="none" stroke="rgba(0,0,0,0.33)" stroke-linecap="round" stroke-width="3"/>
  </g>
</svg>
